<mxfile host="app.diagrams.net" modified="2020-05-21T01:26:02.619Z" agent="5.0 (Windows)" etag="CM-dKseL0HPXRUYdQ4Qr" version="13.1.3" type="github">
  <diagram name="Page-1" id="9361dd3d-8414-5efd-6122-117bd74ce7a7">
    <mxGraphModel dx="1318" dy="603" grid="1" gridSize="10" guides="1" tooltips="1" connect="1" arrows="1" fold="1" page="0" pageScale="1.5" pageWidth="826" pageHeight="1169" background="#ffffff" math="0" shadow="0">
      <root>
        <mxCell id="0" />
        <mxCell id="1" parent="0" />
        <mxCell id="69" value="" style="fillColor=#DEE8FF;strokeColor=none" parent="1" vertex="1">
          <mxGeometry x="-200" y="680" width="1610" height="800" as="geometry" />
        </mxCell>
        <mxCell id="2" value="" style="fillColor=#CC4125;strokeColor=#660000" parent="1" vertex="1">
          <mxGeometry x="120" y="149.39" width="10" height="50.61" as="geometry" />
        </mxCell>
        <mxCell id="3" value="" style="edgeStyle=none;verticalLabelPosition=top;verticalAlign=bottom;labelPosition=left;align=right;exitX=1;exitY=0.25;exitDx=0;exitDy=0;" parent="1" source="2" edge="1">
          <mxGeometry width="100" height="100" as="geometry">
            <mxPoint x="80" y="159" as="sourcePoint" />
            <mxPoint x="203" y="162" as="targetPoint" />
            <mxPoint x="15" y="51" as="offset" />
          </mxGeometry>
        </mxCell>
        <mxCell id="oQ3h6LEIsGmMoKHgF2m0-93" value="&lt;div&gt;Handle&lt;/div&gt;&lt;div&gt;Input&lt;br&gt;&lt;/div&gt;" style="edgeLabel;html=1;align=center;verticalAlign=middle;resizable=0;points=[];" parent="3" vertex="1" connectable="0">
          <mxGeometry relative="1" as="geometry">
            <mxPoint x="-6.57" y="17.67" as="offset" />
          </mxGeometry>
        </mxCell>
        <mxCell id="4" value="Wireless&#xa;Controller" style="shadow=1;fillColor=#A2C4C9;strokeColor=none" parent="1" vertex="1">
          <mxGeometry x="100" y="70" width="60" height="50" as="geometry" />
        </mxCell>
        <mxCell id="6" value="" style="fillColor=#CC4125;strokeColor=#660000" parent="1" vertex="1">
          <mxGeometry x="202.5" y="149.39" width="10" height="250.61" as="geometry" />
        </mxCell>
        <mxCell id="7" value="Operating&#xa;System" style="shadow=1;fillColor=#A2C4C9;strokeColor=none" parent="1" vertex="1">
          <mxGeometry x="170" y="70" width="70" height="50" as="geometry" />
        </mxCell>
        <mxCell id="8" value="" style="edgeStyle=none;endArrow=none;dashed=1" parent="1" source="7" target="6" edge="1">
          <mxGeometry x="272.3350694444445" y="165" width="100" height="100" as="geometry">
            <mxPoint x="347.2588734567901" y="110" as="sourcePoint" />
            <mxPoint x="347.5761959876544" y="165" as="targetPoint" />
          </mxGeometry>
        </mxCell>
        <mxCell id="13" value="" style="verticalLabelPosition=top;verticalAlign=bottom;exitX=1.15;exitY=0.138;exitDx=0;exitDy=0;entryX=0.012;entryY=0.15;entryDx=0;entryDy=0;entryPerimeter=0;exitPerimeter=0;" parent="1" edge="1" target="21" source="6">
          <mxGeometry x="472.95524691358025" y="221.6055092592592" width="100" height="100" as="geometry">
            <mxPoint x="440" y="308.89563271604936" as="sourcePoint" />
            <mxPoint x="550" y="308.89563271604936" as="targetPoint" />
          </mxGeometry>
        </mxCell>
        <mxCell id="16iJN_MO-Rg0JeMpDWyn-110" value="Transmit Packet" style="edgeLabel;html=1;align=center;verticalAlign=middle;resizable=0;points=[];" vertex="1" connectable="0" parent="13">
          <mxGeometry relative="1" as="geometry">
            <mxPoint x="-14" as="offset" />
          </mxGeometry>
        </mxCell>
        <mxCell id="15" value="Network&#xa;Controller" style="shadow=1;fillColor=#A2C4C9;strokeColor=none" parent="1" vertex="1">
          <mxGeometry x="463.9" y="70" width="63.75" height="50" as="geometry" />
        </mxCell>
        <mxCell id="16iJN_MO-Rg0JeMpDWyn-97" style="rounded=0;orthogonalLoop=1;jettySize=auto;html=1;entryX=0;entryY=0.5;entryDx=0;entryDy=0;exitX=1.039;exitY=0.943;exitDx=0;exitDy=0;exitPerimeter=0;" edge="1" parent="1" source="17" target="16iJN_MO-Rg0JeMpDWyn-91">
          <mxGeometry relative="1" as="geometry" />
        </mxCell>
        <mxCell id="16iJN_MO-Rg0JeMpDWyn-98" value="&lt;div&gt;Transmit&lt;/div&gt;&lt;div&gt;Signal&lt;br&gt;&lt;/div&gt;" style="edgeLabel;html=1;align=center;verticalAlign=middle;resizable=0;points=[];" vertex="1" connectable="0" parent="16iJN_MO-Rg0JeMpDWyn-97">
          <mxGeometry x="0.1524" y="1" relative="1" as="geometry">
            <mxPoint x="-8.18" y="1.3" as="offset" />
          </mxGeometry>
        </mxCell>
        <mxCell id="16iJN_MO-Rg0JeMpDWyn-108" style="rounded=0;orthogonalLoop=1;jettySize=auto;html=1;exitX=-0.048;exitY=0.117;exitDx=0;exitDy=0;entryX=1.155;entryY=0.689;entryDx=0;entryDy=0;dashed=1;endArrow=classic;endFill=1;entryPerimeter=0;exitPerimeter=0;" edge="1" parent="1">
          <mxGeometry relative="1" as="geometry">
            <mxPoint x="270.46999999999997" y="370.00000000000006" as="sourcePoint" />
            <mxPoint x="209.99999999999994" y="370.36029" as="targetPoint" />
          </mxGeometry>
        </mxCell>
        <mxCell id="16iJN_MO-Rg0JeMpDWyn-109" value="&lt;div&gt;Video&lt;/div&gt;&lt;div&gt;Decode&lt;/div&gt;" style="edgeLabel;html=1;align=center;verticalAlign=middle;resizable=0;points=[];" vertex="1" connectable="0" parent="16iJN_MO-Rg0JeMpDWyn-108">
          <mxGeometry x="-0.1128" y="1" relative="1" as="geometry">
            <mxPoint x="76.52000000000001" as="offset" />
          </mxGeometry>
        </mxCell>
        <mxCell id="17" value="" style="fillColor=#CC4125;strokeColor=#660000" parent="1" vertex="1">
          <mxGeometry x="348.9" y="310" width="10" height="100" as="geometry" />
        </mxCell>
        <mxCell id="19" value="Process&#xa;Commands&#xa;" style="edgeStyle=elbowEdgeStyle;elbow=vertical;verticalLabelPosition=top;verticalAlign=bottom;exitX=0.956;exitY=0.682;exitDx=0;exitDy=0;exitPerimeter=0;" parent="1" source="6" target="17" edge="1">
          <mxGeometry width="100" height="100" as="geometry">
            <mxPoint x="350" y="390" as="sourcePoint" />
            <mxPoint x="450" y="290" as="targetPoint" />
            <mxPoint y="45" as="offset" />
          </mxGeometry>
        </mxCell>
        <mxCell id="16iJN_MO-Rg0JeMpDWyn-115" style="edgeStyle=none;rounded=0;orthogonalLoop=1;jettySize=auto;html=1;exitX=1;exitY=0.25;exitDx=0;exitDy=0;entryX=0;entryY=0.25;entryDx=0;entryDy=0;startArrow=none;startFill=0;endArrow=classic;endFill=1;" edge="1" parent="1" source="21" target="26">
          <mxGeometry relative="1" as="geometry" />
        </mxCell>
        <mxCell id="21" value="" style="fillColor=#CC4125;strokeColor=#660000" parent="1" vertex="1">
          <mxGeometry x="490.78" y="160" width="10" height="140" as="geometry" />
        </mxCell>
        <mxCell id="16iJN_MO-Rg0JeMpDWyn-107" style="edgeStyle=orthogonalEdgeStyle;rounded=0;orthogonalLoop=1;jettySize=auto;html=1;dashed=1;endArrow=none;endFill=0;" edge="1" parent="1" source="22" target="16iJN_MO-Rg0JeMpDWyn-91">
          <mxGeometry relative="1" as="geometry" />
        </mxCell>
        <mxCell id="22" value="Display" style="shadow=1;fillColor=#A2C4C9;strokeColor=none" parent="1" vertex="1">
          <mxGeometry x="392.65" y="70" width="57.5" height="50" as="geometry" />
        </mxCell>
        <mxCell id="24" value="Router" style="shadow=1;fillColor=#A2C4C9;strokeColor=none" parent="1" vertex="1">
          <mxGeometry x="543.9" y="70" width="50" height="50" as="geometry" />
        </mxCell>
        <mxCell id="16iJN_MO-Rg0JeMpDWyn-117" style="edgeStyle=none;rounded=0;orthogonalLoop=1;jettySize=auto;html=1;entryX=0;entryY=0.5;entryDx=0;entryDy=0;startArrow=none;startFill=0;endArrow=classic;endFill=1;" edge="1" parent="1" source="26" target="16iJN_MO-Rg0JeMpDWyn-116">
          <mxGeometry relative="1" as="geometry" />
        </mxCell>
        <mxCell id="16iJN_MO-Rg0JeMpDWyn-118" value="&lt;div&gt;Shape&lt;/div&gt;&lt;div&gt;Traffic&lt;br&gt;&lt;/div&gt;" style="edgeLabel;html=1;align=center;verticalAlign=middle;resizable=0;points=[];" vertex="1" connectable="0" parent="16iJN_MO-Rg0JeMpDWyn-117">
          <mxGeometry x="-0.2861" y="-2" relative="1" as="geometry">
            <mxPoint as="offset" />
          </mxGeometry>
        </mxCell>
        <mxCell id="26" value="" style="fillColor=#CC4125;strokeColor=#660000" parent="1" vertex="1">
          <mxGeometry x="563.8999999999999" y="190.00429012345683" width="10" height="40" as="geometry" />
        </mxCell>
        <mxCell id="30" value="ISP" style="shadow=1;fillColor=#A2C4C9;strokeColor=none" parent="1" vertex="1">
          <mxGeometry x="613.9" y="70" width="40" height="50" as="geometry" />
        </mxCell>
        <mxCell id="33" value="" style="edgeStyle=elbowEdgeStyle;elbow=horizontal;endArrow=none;dashed=1" parent="1" source="4" target="2" edge="1">
          <mxGeometry x="230.00000000000003" y="310" width="100" height="100" as="geometry">
            <mxPoint x="230.00000000000003" y="410" as="sourcePoint" />
            <mxPoint x="330" y="310" as="targetPoint" />
          </mxGeometry>
        </mxCell>
        <mxCell id="35" value="Receive Packet" style="edgeStyle=elbowEdgeStyle;elbow=vertical;dashed=1;verticalLabelPosition=bottom;verticalAlign=top;exitX=0.5;exitY=0.801;exitDx=0;exitDy=0;exitPerimeter=0;" parent="1" edge="1" target="6" source="21">
          <mxGeometry x="179.38" y="240.60277777777776" width="100" height="100" as="geometry">
            <mxPoint x="370" y="270" as="sourcePoint" />
            <mxPoint x="299.38" y="259.9970679012346" as="targetPoint" />
            <Array as="points" />
          </mxGeometry>
        </mxCell>
        <mxCell id="47" value="&lt;16 ms" style="edgeStyle=elbowEdgeStyle;elbow=horizontal;startArrow=open;endArrow=open;labelPosition=left;align=right;fontStyle=1;fontColor=#FF0000;labelBackgroundColor=#000000;" parent="1" edge="1">
          <mxGeometry x="-139.9643672839506" y="290" width="100" height="100" as="geometry">
            <mxPoint x="-20" y="160" as="sourcePoint" />
            <mxPoint x="-20" y="440" as="targetPoint" />
          </mxGeometry>
        </mxCell>
        <mxCell id="71" value="Internet Game Streaming" style="rounded=1;fontStyle=1;fillColor=#FFD966;strokeColor=none" parent="1" vertex="1">
          <mxGeometry x="20" y="20" width="150" height="30" as="geometry" />
        </mxCell>
        <mxCell id="oQ3h6LEIsGmMoKHgF2m0-96" value="Operating&#xa;System&#xa;" style="shadow=1;fillColor=#A2C4C9;strokeColor=none" parent="1" vertex="1">
          <mxGeometry x="743.9" y="70" width="66.1" height="50" as="geometry" />
        </mxCell>
        <mxCell id="oQ3h6LEIsGmMoKHgF2m0-97" value="Network&#xa;Controller" style="shadow=1;fillColor=#A2C4C9;strokeColor=none" parent="1" vertex="1">
          <mxGeometry x="820.01" y="70" width="60" height="50" as="geometry" />
        </mxCell>
        <mxCell id="oQ3h6LEIsGmMoKHgF2m0-98" value="Graphics&#xa;Controller" style="shadow=1;fillColor=#A2C4C9;strokeColor=none" parent="1" vertex="1">
          <mxGeometry x="940" y="70" width="60" height="50" as="geometry" />
        </mxCell>
        <mxCell id="16iJN_MO-Rg0JeMpDWyn-106" value="" style="edgeStyle=orthogonalEdgeStyle;rounded=0;orthogonalLoop=1;jettySize=auto;html=1;dashed=1;endArrow=none;endFill=0;" edge="1" parent="1" source="oQ3h6LEIsGmMoKHgF2m0-100" target="17">
          <mxGeometry relative="1" as="geometry" />
        </mxCell>
        <mxCell id="oQ3h6LEIsGmMoKHgF2m0-100" value="Graphics&#xa;Controller" style="shadow=1;fillColor=#A2C4C9;strokeColor=none" parent="1" vertex="1">
          <mxGeometry x="323.9" y="70" width="60" height="50" as="geometry" />
        </mxCell>
        <mxCell id="16iJN_MO-Rg0JeMpDWyn-90" value="&lt;div&gt;Push&lt;/div&gt;&lt;div&gt;Button&lt;br&gt;&lt;/div&gt;" style="edgeStyle=orthogonalEdgeStyle;rounded=0;orthogonalLoop=1;jettySize=auto;html=1;entryX=-0.01;entryY=0.138;entryDx=0;entryDy=0;entryPerimeter=0;exitX=1;exitY=0.3333333333333333;exitDx=0;exitDy=0;exitPerimeter=0;" edge="1" parent="1" source="16iJN_MO-Rg0JeMpDWyn-89" target="2">
          <mxGeometry x="0.0156" relative="1" as="geometry">
            <Array as="points">
              <mxPoint x="40" y="156" />
            </Array>
            <mxPoint as="offset" />
          </mxGeometry>
        </mxCell>
        <mxCell id="16iJN_MO-Rg0JeMpDWyn-89" value="Gamer" style="shape=umlActor;verticalLabelPosition=top;labelBackgroundColor=#ffffff;verticalAlign=bottom;html=1;outlineConnect=0;labelPosition=center;align=center;" vertex="1" parent="1">
          <mxGeometry x="20" y="149.39" width="9.69" height="19.39" as="geometry" />
        </mxCell>
        <mxCell id="16iJN_MO-Rg0JeMpDWyn-94" value="" style="edgeStyle=orthogonalEdgeStyle;rounded=0;orthogonalLoop=1;jettySize=auto;html=1;dashed=1;entryX=1;entryY=1;entryDx=0;entryDy=0;entryPerimeter=0;" edge="1" parent="1" source="16iJN_MO-Rg0JeMpDWyn-91" target="16iJN_MO-Rg0JeMpDWyn-89">
          <mxGeometry relative="1" as="geometry">
            <mxPoint x="25" y="170" as="targetPoint" />
            <Array as="points">
              <mxPoint x="30" y="430" />
              <mxPoint x="30" y="169" />
            </Array>
          </mxGeometry>
        </mxCell>
        <mxCell id="16iJN_MO-Rg0JeMpDWyn-95" value="&lt;div&gt;Observe&lt;/div&gt;&lt;div&gt;Image&lt;br&gt;&lt;/div&gt;" style="edgeLabel;html=1;align=center;verticalAlign=middle;resizable=0;points=[];" vertex="1" connectable="0" parent="16iJN_MO-Rg0JeMpDWyn-94">
          <mxGeometry x="0.199" y="-1" relative="1" as="geometry">
            <mxPoint as="offset" />
          </mxGeometry>
        </mxCell>
        <mxCell id="16iJN_MO-Rg0JeMpDWyn-91" value="" style="fillColor=#CC4125;strokeColor=#660000" vertex="1" parent="1">
          <mxGeometry x="416.4" y="370" width="10" height="70" as="geometry" />
        </mxCell>
        <mxCell id="16iJN_MO-Rg0JeMpDWyn-111" value="Process&#xa;Commands&#xa;" style="edgeStyle=elbowEdgeStyle;elbow=vertical;verticalLabelPosition=top;verticalAlign=bottom;exitX=0.956;exitY=0.682;exitDx=0;exitDy=0;exitPerimeter=0;" edge="1" parent="1">
          <mxGeometry x="0.44" y="69.69" width="100" height="100" as="geometry">
            <mxPoint x="212.49999999999994" y="389.99602" as="sourcePoint" />
            <mxPoint x="275.44" y="390.0788888888889" as="targetPoint" />
            <mxPoint y="45" as="offset" />
          </mxGeometry>
        </mxCell>
        <mxCell id="16iJN_MO-Rg0JeMpDWyn-126" style="edgeStyle=none;rounded=0;orthogonalLoop=1;jettySize=auto;html=1;exitX=1;exitY=0.25;exitDx=0;exitDy=0;entryX=0;entryY=0.25;entryDx=0;entryDy=0;startArrow=none;startFill=0;endArrow=classic;endFill=1;" edge="1" parent="1" source="16iJN_MO-Rg0JeMpDWyn-116" target="16iJN_MO-Rg0JeMpDWyn-125">
          <mxGeometry relative="1" as="geometry" />
        </mxCell>
        <mxCell id="16iJN_MO-Rg0JeMpDWyn-127" value="&lt;div&gt;Process&lt;/div&gt;&lt;div&gt;Packet&lt;br&gt;&lt;/div&gt;" style="edgeLabel;html=1;align=center;verticalAlign=middle;resizable=0;points=[];" vertex="1" connectable="0" parent="16iJN_MO-Rg0JeMpDWyn-126">
          <mxGeometry x="-0.3626" y="-2" relative="1" as="geometry">
            <mxPoint as="offset" />
          </mxGeometry>
        </mxCell>
        <mxCell id="16iJN_MO-Rg0JeMpDWyn-116" value="" style="fillColor=#CC4125;strokeColor=#660000" vertex="1" parent="1">
          <mxGeometry x="628.8999999999999" y="168.78429012345683" width="10" height="40" as="geometry" />
        </mxCell>
        <mxCell id="16iJN_MO-Rg0JeMpDWyn-119" value="Router" style="shadow=1;fillColor=#A2C4C9;strokeColor=none" vertex="1" parent="1">
          <mxGeometry x="673.9" y="70" width="50" height="50" as="geometry" />
        </mxCell>
        <mxCell id="16iJN_MO-Rg0JeMpDWyn-120" value="Game" style="shadow=1;fillColor=#A2C4C9;strokeColor=none" vertex="1" parent="1">
          <mxGeometry x="890" y="70" width="40" height="50" as="geometry" />
        </mxCell>
        <mxCell id="16iJN_MO-Rg0JeMpDWyn-121" value="Browser" style="shadow=1;fillColor=#A2C4C9;strokeColor=none" vertex="1" parent="1">
          <mxGeometry x="260" y="70" width="50" height="50" as="geometry" />
        </mxCell>
        <mxCell id="16iJN_MO-Rg0JeMpDWyn-122" value="" style="fillColor=#CC4125;strokeColor=#660000" vertex="1" parent="1">
          <mxGeometry x="279.9999999999999" y="190.00429012345683" width="10" height="40" as="geometry" />
        </mxCell>
        <mxCell id="16iJN_MO-Rg0JeMpDWyn-125" value="" style="fillColor=#CC4125;strokeColor=#660000" vertex="1" parent="1">
          <mxGeometry x="693.8999999999999" y="168.78429012345683" width="10" height="40" as="geometry" />
        </mxCell>
      </root>
    </mxGraphModel>
  </diagram>
</mxfile>
